<svg width="100px" height="100px" viewBox="0 0 100 100" version="1.1" xmlns="http://www.w3.org/2000/svg" xmlns:xlink="http://www.w3.org/1999/xlink">
    <defs>
        <linearGradient x1="83.0966259%" y1="50%" x2="41.6678666%" y2="13.5126376%" id="linearGradient-1">
            <stop stop-color="#000000" stop-opacity="0" offset="0%"></stop>
            <stop stop-color="#000000" stop-opacity="0.4" offset="100%"></stop>
        </linearGradient>
    </defs>
    <g id="Page-1" stroke="none" stroke-width="1" fill="none" fill-rule="evenodd">
        <g id="Artboard">
            <g id="Icon">
                <rect id="Background" fill="#F68F34" x="0" y="0" width="100" height="100" rx="8.0252438"></rect>
                <path d="M80.4110407,15 C78.2840417,26.4083224 74.6026252,36.8089424 69.3667912,46.2018602 C64.1309571,55.5947779 54.3420267,69.3595265 40,87.4961061 L53.3701891,99.9999996 L100,99.9999996 L100,34.9245484 L80.4110407,15 Z" id="path3470" fill-opacity="0.25" fill="url(#linearGradient-1)"></path>
                <path d="M78.3470661,20.3695555 C80.6735996,17.3252469 81.0937405,15 81.0937405,15 C81.0937405,15 85.4818741,26.3561326 84.9562939,40.5385131 L73.1344278,46.5852204 L74.2593538,46.4339284 L74.1975751,46.46234 L74.3026911,46.4289564 L84.6252705,45.0467301 C84.0646517,50.0187671 82.8327655,55.2138355 80.5589396,60.2995191 L67.5614335,62.8998945 L77.9504021,65.3134633 C75.7540301,68.9501532 72.9454033,72.4724863 69.3751462,75.7469279 L58.6846607,73.9754621 L64.403342,79.7778293 C60.8266305,82.3441107 56.6763911,84.6994357 51.8484298,86.7607002 C45.7950369,88.5002029 41.9251069,88.1791513 39.4650228,87.1975292 C37.6319466,83.3868179 35.8615712,78.4673424 35.9187396,73.4342204 C35.9547003,70.5504389 36.7154085,67.690097 38.2681753,65.2509577 C39.8661235,62.427551 41.5193959,60.111292 43.3331086,58.0478966 C46.9264174,53.9871629 50.6829327,51.4720225 51.8484298,50.6367203 C53.0415891,49.8163342 55.1614292,48.3133584 57.7644343,46.557519 C60.3941794,44.863475 63.4849598,42.6558906 65.9210701,40.4184739 C71.006289,35.9869683 74.8356479,31.6428285 74.824583,31.6428285 C74.837492,31.6428285 70.3423982,35.5934671 64.7417419,39.5121426 C61.9515565,41.5584909 58.9068797,43.3157509 56.0180327,44.8648956 C53.2029514,46.4417416 50.8820999,47.8651648 49.6382268,48.7189346 C47.3551802,50.3717817 33.0649313,59.2525502 31.243842,73.3028165 C31.0170127,76.8081026 31.5481253,80.1763026 32.3872095,83.2142172 C30.1216822,83.17231 27.0318239,82.6452741 24.993126,80.4192221 C21.4413104,76.5417435 14.7120397,63.5618857 28.5596948,50.3497627 C30.4270236,48.5681798 32.4212946,46.9284663 34.4948786,45.4116437 L20,45.4116437 L20,37.2518625 L48.2759574,37.2518625 C55.5570254,33.6655419 62.6017541,30.9886322 67.6739978,28.5293378 L20,28.5293378 L20,20.3695566 L78.3470681,20.3695566 Z" id="Combined-Shape" fill="#FFFFFF"></path>
            </g>
        </g>
    </g>
</svg>
